<svg width="20" height="20" viewBox="0 0 20 20" fill="none" xmlns="http://www.w3.org/2000/svg">
<path d="M9.99996 1.70007C5.41663 1.70007 1.66663 5.44174 1.66663 10.0501C1.66663 14.2167 4.71663 17.6751 8.69996 18.3001V12.4667H6.58329V10.0501H8.69996V8.20841C8.69996 6.11674 9.94163 4.96674 11.85 4.96674C12.7583 4.96674 13.7083 5.12507 13.7083 5.12507V7.18341H12.6583C11.625 7.18341 11.3 7.82507 11.3 8.48341V10.0501H13.6166L13.2416 12.4667H11.3V18.3001C13.2637 17.9899 15.0518 16.988 16.3416 15.4751C17.6313 13.9622 18.3378 12.0381 18.3333 10.0501C18.3333 5.44174 14.5833 1.70007 9.99996 1.70007Z" fill="white"/>
</svg>
