<svg width="20" height="20" viewBox="0 0 20 20" fill="none" xmlns="http://www.w3.org/2000/svg">
<path d="M18.7167 5.00004C18.075 5.29171 17.3833 5.48337 16.6667 5.57504C17.4 5.13337 17.9667 4.43337 18.2333 3.59171C17.5417 4.00837 16.775 4.30004 15.9667 4.46671C15.3083 3.75004 14.3833 3.33337 13.3333 3.33337C11.375 3.33337 9.77499 4.93337 9.77499 6.90837C9.77499 7.19171 9.80833 7.46671 9.86666 7.72504C6.89999 7.57504 4.25833 6.15004 2.49999 3.99171C2.19166 4.51671 2.01666 5.13337 2.01666 5.78337C2.01666 7.02504 2.64166 8.12504 3.60833 8.75004C3.01666 8.75004 2.46666 8.58337 1.98333 8.33337C1.98333 8.33337 1.98333 8.33337 1.98333 8.35837C1.98333 10.0917 3.21666 11.5417 4.84999 11.8667C4.54999 11.95 4.23333 11.9917 3.90833 11.9917C3.68333 11.9917 3.45833 11.9667 3.24166 11.925C3.69166 13.3334 4.99999 14.3834 6.57499 14.4084C5.35833 15.375 3.81666 15.9417 2.13333 15.9417C1.84999 15.9417 1.56666 15.925 1.28333 15.8917C2.86666 16.9084 4.74999 17.5 6.76666 17.5C13.3333 17.5 16.9417 12.05 16.9417 7.32504C16.9417 7.16671 16.9417 7.01671 16.9333 6.85837C17.6333 6.35837 18.2333 5.72504 18.7167 5.00004Z" fill="white"/>
</svg>
